<?xml version="1.0" encoding="UTF-8" standalone="no"?>
<!DOCTYPE svg PUBLIC "-//W3C//DTD SVG 1.1//EN" "http://www.w3.org/Graphics/SVG/1.1/DTD/svg11.dtd">
<svg width="100%" height="100%" viewBox="0 0 128 128" version="1.1" xmlns="http://www.w3.org/2000/svg" xmlns:xlink="http://www.w3.org/1999/xlink" xml:space="preserve" xmlns:serif="http://www.serif.com/" style="fill-rule:evenodd;clip-rule:evenodd;stroke-linejoin:round;stroke-miterlimit:2;">
    <g transform="matrix(0.102073,0,0,0.102073,0,-0)">
        <g transform="matrix(1.186625,0,0,1.278057,-157.968896,-154.838554)">
            <rect x="133.125" y="121.152" width="1056.779" height="981.177"/>
        </g>
        <g transform="matrix(1.224609,0,0,1.224609,0,0)">
            <path d="M275.505,348.996C318.977,348.753 318.87,348.756 361.497,348.938C366.089,349.05 366.001,348.994 370.511,349.064C370.511,349.064 380.625,349.316 381.504,349.338C394.123,349.743 399.636,349.615 415.475,354.571C419.761,355.913 431.133,361.363 436.18,364.946C475.146,392.605 474.488,429.495 474.679,436.498C474.668,438.502 474.658,440.507 474.647,442.511C474.316,445.92 472.22,467.523 462.685,483.611C432.285,534.904 378.582,529.605 347.5,529.682C321.922,529.745 320.127,530.553 319.473,526.504C319.123,524.343 319.214,503.945 319.289,503.47C320.179,497.819 342.359,501.815 379.491,500.305C381.175,500.199 382.859,500.094 384.543,499.989C389.596,499.401 389.527,499.573 394.532,498.675C455.832,487.679 468.176,405.287 405.347,381.921C396.431,378.605 393.005,377.331 286.495,378.258C282.708,378.291 283.522,379.769 283.081,383.479C282.136,411.02 282.915,520.579 283,532.5C283.086,627.986 283.529,627.951 283.064,661.481C282.872,663.82 282.68,666.158 282.487,668.497C281.747,670.187 282.254,670.739 280.424,671.175C279.922,671.294 260.156,671.864 257.485,671.691C253.568,671.436 253.885,669.557 253.885,634.5C253.884,351.448 254.248,351.41 254.636,350.559C255.485,348.7 256.14,349.622 262.496,349.304C270.947,349.137 270.863,349.118 275.505,348.996Z" style="fill:rgb(251,251,251);"/>
        </g>
        <g transform="matrix(1.224609,0,0,1.224609,0,0)">
            <path d="M741.998,647.495C740.988,479.937 742.405,479.952 741.968,465.39C741.794,459.59 735.891,470.057 719.817,488.76C708.85,501.521 645.911,578.799 643.5,578.795C639.038,578.788 574.441,493.26 517.37,435.629C510.66,428.853 511.925,427.845 511.865,412.498C511.759,385.599 511.095,379.545 514.142,383.813C518.832,390.381 521.374,390.348 537.455,408.54C563.439,437.935 633.691,524.047 641.939,532.026C645.006,534.993 645.743,531.671 701.433,464.445C761.87,391.489 761.786,391.428 767.357,385.36C769.183,383.371 770.805,382.772 770.712,385.484C769.713,414.472 771.345,655.644 770.114,668.447C769.841,671.281 768.623,671.451 745.507,671.202C741.078,671.154 742.165,664.552 742.127,658.503C742.093,652.955 742.082,653.069 741.998,647.495Z" style="fill:rgb(251,251,252);"/>
        </g>
        <g transform="matrix(1.224609,0,0,1.224609,0,0)">
            <path d="M471.941,526.551C473.733,518.173 473.008,517.859 477.612,510.568C499.166,476.44 544.204,494.856 549.088,523.575C550.223,530.248 546.175,529.466 536.529,529.091C531.258,528.887 532.957,526.567 531.072,521.687C526.001,508.559 504.777,503.206 493.722,515.694C477.366,534.171 494.457,549.318 529.74,587.279C568.27,628.734 568.329,632.45 572.535,629.548C577.414,626.182 577.768,626.78 592.555,627.024C597.996,627.114 588.713,635.756 585.955,638.92C579.892,645.874 584.869,646.652 593.065,655.92C604.809,669.2 606.014,668.777 605.608,670.565C605.537,670.877 587.155,673.535 582.325,668.687C571.724,658.046 571.72,653.572 564.745,657.897C502.111,696.736 454.311,654.344 452.854,619.48C451.439,585.595 477.006,572.55 484.427,567.403C493.154,561.351 470.68,561.144 471.941,526.551Z" style="fill:rgb(213,176,103);"/>
        </g>
        <g transform="matrix(1.224609,0,0,1.224609,0,0)">
            <path d="M500.625,654.033C460.517,641.453 468.561,610.24 471.911,602.69C477.552,589.976 496.258,576.056 500.255,579.802C503.929,583.246 506.072,585.255 542.974,626.042C554.074,638.31 559.353,641.635 554.829,644.936C531.734,661.785 504.892,655.096 500.625,654.033Z" style="fill:rgb(25,25,27);"/>
        </g>
    </g>
</svg>
